<?xml version="1.0" standalone="no"?>
<!DOCTYPE svg PUBLIC "-//W3C//DTD SVG 20010904//EN"
 "http://www.w3.org/TR/2001/REC-SVG-20010904/DTD/svg10.dtd">
<svg version="1.0" xmlns="http://www.w3.org/2000/svg"
 width="20922" height="20922" viewBox="0 0 20922.000000 20922.000000"
 preserveAspectRatio="xMidYMid meet">

<g transform="translate(0.000000,20922.000000) scale(0.100000,-0.100000)"
fill="#fff" stroke="none">
<path d="M104110 209210 c-1538 -74 -2911 -441 -4095 -1095 -1924 -1063 -3259
-2836 -3819 -5072 -151 -602 -229 -1116 -288 -1898 -9 -122 -13 -2323 -17
-9355 l-6 -9195 -35 -3 c-96 -8 -871 -100 -1294 -153 -10272 -1289 -20138
-4579 -29096 -9702 -7311 -4181 -13921 -9545 -19535 -15852 -7467 -8388
-13027 -18273 -16313 -29000 -1412 -4609 -2420 -9465 -2950 -14215 l-38 -335
-9209 -6 c-5066 -4 -9230 -9 -9255 -13 -25 -3 -121 -10 -215 -16 -865 -55
-1771 -236 -2555 -511 -2477 -870 -4251 -2751 -4995 -5299 -369 -1264 -484
-2719 -324 -4135 150 -1343 567 -2593 1217 -3655 1076 -1756 2776 -2975 4889
-3504 602 -151 1116 -229 1898 -288 122 -9 2323 -13 9355 -17 l9194 -6 43
-380 c235 -2096 584 -4339 1004 -6455 1495 -7533 4081 -14790 7677 -21535
3264 -6123 7318 -11770 12079 -16822 560 -594 842 -884 1622 -1664 897 -896
1345 -1330 2111 -2040 7065 -6551 15298 -11746 24240 -15294 4922 -1954 10010
-3396 15260 -4326 1573 -278 3344 -535 4890 -707 l335 -38 6 -9209 c4 -5066
10 -9235 13 -9265 3 -30 11 -127 17 -215 56 -868 236 -1764 510 -2545 738
-2102 2208 -3708 4209 -4597 892 -397 1912 -654 2960 -747 622 -55 1293 -59
1900 -11 2740 220 4971 1442 6352 3480 795 1173 1286 2611 1427 4175 12 124
26 297 33 385 9 122 13 2323 17 9355 l6 9194 380 43 c1591 178 3367 438 4992
728 8161 1460 15962 4173 23243 8083 5970 3206 11545 7218 16505 11881 574
540 972 927 1721 1675 908 909 1339 1355 2055 2126 5408 5832 9906 12478
13301 19655 2960 6256 5065 12845 6292 19697 289 1611 550 3403 729 4993 l43
380 9209 6 c5066 4 9230 9 9255 13 25 3 122 10 215 16 545 35 1188 132 1707
260 1750 428 3222 1322 4295 2606 855 1025 1439 2266 1732 3686 219 1060 268
2255 140 3393 -68 609 -198 1227 -376 1794 -859 2736 -2914 4660 -5730 5365
-602 151 -1116 229 -1898 288 -122 9 -2323 13 -9355 17 l-9195 6 -8 75 c-22
218 -95 832 -148 1254 -1221 9729 -4239 19104 -8912 27681 -3186 5847 -7117
11274 -11681 16125 -1005 1067 -2303 2365 -3366 3366 -3489 3283 -7274 6239
-11300 8826 -9430 6058 -20027 10000 -31175 11597 -727 105 -1655 223 -2335
299 l-335 38 -6 9209 c-4 5066 -10 9235 -13 9265 -3 30 -11 127 -17 215 -56
868 -236 1764 -510 2545 -826 2350 -2562 4070 -4923 4876 -798 272 -1619 430
-2576 494 -212 15 -954 20 -1180 10z m-8222 -57511 l-3 -13331 -260 -70
c-2840 -757 -5659 -1922 -8261 -3414 -3278 -1878 -6250 -4291 -8773 -7124
-1890 -2121 -3498 -4433 -4831 -6945 -157 -296 -554 -1090 -703 -1405 -883
-1872 -1615 -3865 -2135 -5815 l-70 -260 -13331 -3 c-7332 -1 -13331 1 -13331
4 0 17 138 930 180 1198 1131 7059 3455 13788 6903 19986 2381 4281 5304 8294
8646 11870 607 649 1582 1639 2221 2254 5297 5102 11401 9154 18150 12046
4729 2027 9735 3453 14850 4230 411 62 721 108 738 109 10 1 12 -2668 10
-13330z m17894 13266 c7346 -1090 14271 -3430 20691 -6992 4297 -2384 8311
-5305 11917 -8672 797 -745 1858 -1798 2600 -2581 6530 -6894 11325 -15173
14045 -24252 864 -2883 1542 -5954 1954 -8858 17 -118 33 -230 36 -248 l6 -32
-13332 2 -13331 3 -70 260 c-811 3040 -2088 6054 -3731 8804 -1830 3063 -4133
5848 -6807 8230 -3363 2996 -7234 5302 -11444 6817 -850 306 -1865 624 -2721
852 l-260 70 -3 13331 c-1 7332 1 13331 4 13331 3 0 204 -29 446 -65z m-8778
-42925 c1049 -27 2000 -131 2986 -326 2879 -571 5599 -1887 7855 -3799 648
-549 1327 -1217 1880 -1850 1249 -1429 2243 -3019 2978 -4765 1443 -3429 1732
-7306 817 -10930 -888 -3515 -2859 -6669 -5650 -9045 -1875 -1596 -4089 -2787
-6446 -3469 -3106 -899 -6422 -908 -9534 -27 -2190 620 -4238 1667 -6050 3094
-779 613 -1581 1370 -2245 2117 -1965 2211 -3330 4848 -3984 7700 -542 2364
-578 4862 -105 7250 599 3019 2010 5850 4072 8170 473 531 1052 1107 1577
1565 2886 2523 6473 4019 10265 4280 249 17 666 35 890 38 85 1 189 3 230 5
41 1 250 -3 464 -8z m-34082 -26415 c812 -3044 2087 -6053 3731 -8804 2855
-4780 6818 -8826 11542 -11786 2923 -1831 6147 -3238 9430 -4113 l260 -70 3
-13331 c1 -7332 -1 -13331 -4 -13331 -17 0 -930 138 -1198 180 -6833 1095
-13356 3307 -19396 6578 -4625 2505 -8938 5631 -12760 9251 -788 746 -1695
1656 -2426 2432 -2418 2568 -4651 5396 -6544 8289 -3618 5526 -6257 11457
-7939 17835 -584 2217 -1074 4631 -1390 6855 -17 118 -33 230 -36 248 l-6 32
13332 -2 13331 -3 70 -260z m94108 259 c0 -17 -138 -930 -180 -1198 -1095
-6833 -3307 -13356 -6578 -19396 -3177 -5868 -7333 -11199 -12248 -15711
-1715 -1574 -3503 -3036 -5374 -4395 -7958 -5779 -17172 -9517 -26970 -10943
-151 -22 -292 -43 -312 -46 l-38 -5 0 13329 0 13330 38 11 c20 6 201 55 402
110 2759 750 5504 1888 8015 3323 3832 2189 7219 5076 9986 8512 2612 3243
4620 6912 5929 10835 224 670 450 1420 605 2010 31 118 58 221 60 228 4 9
2679 12 13335 12 7331 0 13330 -3 13330 -6z"/>
</g>
</svg>
