<?xml version="1.0"?>
<svg viewBox="0 0 850 300.00000000000006" xmlns="http://www.w3.org/2000/svg" xmlns:svg="http://www.w3.org/2000/svg" preserveAspectRatio="xMidYMid meet" version="1.0">
 <metadata>Created by potrace 1.10, written by Peter Selinger 2001-2011</metadata>
 <g class="layer">
  <title>Layer 1</title>
  <path d="m466.84,21.34c-0.7,0.4 -1,2.1 -0.9,3.8l0.4,3.1l-96.9,-0.7l-96.8,-0.7l-4.2,2.3c-4.3,2.2 -19.2,17.4 -27.5,28c-5.4,6.9 -7.3,8.4 -12.3,9.1c-4.7,0.7 -12.7,2.6 -17,4.1c-1.6,0.5 -4.8,1.5 -7,2.1c-2.7,0.7 -31.9,1.3 -87.3,1.6l-83.4,0.6l-2.9,3.3l-2.9,3.2l0,51.4c0,56.2 0,56 5.9,60.3c2.4,1.8 4.3,2.3 9.3,2.3c3.9,-0.1 7,-0.6 8.2,-1.5c1.1,-0.8 3.1,-1.5 4.6,-1.5c1.4,0 3.4,-0.6 4.5,-1.4c1.1,-0.7 3.1,-1.6 4.5,-1.9c1.4,-0.3 5,-1.5 8,-2.7c3,-1.2 6.4,-2.4 7.5,-2.7c1.1,-0.3 3.4,-1.1 5,-1.8c1.7,-0.7 5,-2.1 7.5,-3c2.5,-0.9 5.8,-2.3 7.3,-3.1c1.6,-0.8 3.6,-1.4 4.6,-1.4c0.9,0 2.6,-0.7 3.7,-1.5c1,-0.8 2.8,-1.5 4,-1.5c1.1,0 2.9,-0.7 4,-1.5c1,-0.8 2.8,-1.5 4,-1.5c1.1,0 2.9,-0.7 4,-1.5c1,-0.8 2.8,-1.5 3.9,-1.5c1.1,0 2.9,-0.7 3.9,-1.5c1.1,-0.8 2.9,-1.5 4,-1.5c1.2,0 3,-0.7 4,-1.5c1.1,-0.8 2.9,-1.5 4,-1.5c1.2,0 3,-0.7 4,-1.5c1.1,-0.8 2.9,-1.5 4,-1.5c1.2,0 3,-0.7 4,-1.5c1.1,-0.8 2.9,-1.5 4,-1.5c1.2,0 3,-0.7 4,-1.5c1.1,-0.8 2.9,-1.5 4,-1.5c1.2,0 3,-0.7 4,-1.5c1.1,-0.8 2.9,-1.5 4,-1.5c1.2,0 3,-0.7 4,-1.5c1.1,-0.8 2.9,-1.5 4,-1.5c1.2,0 3,-0.7 4,-1.5c1.1,-0.8 2.8,-1.5 3.7,-1.5c1,0 3,-0.6 4.6,-1.4c1.5,-0.8 4.8,-2.2 7.3,-3.1c2.5,-0.9 5.8,-2.3 7.3,-3.1c1.6,-0.8 3.6,-1.4 4.6,-1.4c0.9,0 2.6,-0.7 3.7,-1.5c1,-0.8 2.8,-1.5 3.9,-1.5c1.1,0 2.9,-0.7 3.9,-1.5c1.1,-0.8 2.8,-1.5 3.8,-1.5c1,0 2.9,-0.7 4.3,-1.6c1.3,-0.8 4.7,-1.8 7.7,-2c5.1,-0.6 5.4,-0.5 7.1,2.6c2.1,3.8 2.3,12.7 0.3,16.7c-1.7,3.6 -3.9,8.6 -6.1,14.3c-2.2,5.7 -4.4,10.7 -6.1,14.3c-0.8,1.6 -1.4,3.5 -1.4,4.2c0,0.7 -0.6,2.6 -1.4,4.2c-0.7,1.5 -2.1,4.6 -3.1,6.8c-0.9,2.2 -2.3,5.3 -3.1,6.8c-2.3,4.6 -1.8,12.6 1,16.7c2.9,4.3 7,6.4 28.9,14.6c2.3,0.9 5.7,2.2 7.5,3c4.6,2 13.2,1.8 15.7,-0.4c3.1,-2.5 6.7,-10.2 8.2,-17.2c0.3,-1.4 1.2,-3.4 1.9,-4.5c0.8,-1.1 1.4,-2.9 1.4,-4c0,-1.1 0.7,-2.9 1.5,-3.9c0.8,-1.1 1.5,-2.9 1.5,-4c0,-1.2 0.7,-3 1.5,-4c0.8,-1.1 1.5,-2.9 1.5,-4c0,-1.2 0.7,-3 1.5,-4c0.8,-1.1 1.5,-2.9 1.5,-4c0,-1.2 0.7,-3 1.5,-4c0.8,-1.1 1.5,-2.9 1.5,-4c0,-1.2 0.7,-3 1.5,-4c0.8,-1.1 1.5,-2.7 1.5,-3.7c0,-0.9 0.7,-3 1.5,-4.5c0.8,-1.6 1.5,-3.7 1.5,-4.7c0,-0.9 0.5,-1.7 1.2,-1.7c0.6,0 2,0.8 3.1,1.7c1.7,1.6 4.4,1.8 24.6,1.8c24.9,0 25.3,-0.1 29.8,-6.7c2.4,-3.7 4.3,-3.6 4.3,0.2c0,4.1 3.2,7.2 6.2,6.1c2.1,-0.8 2.3,-1.5 2.3,-7.3c0,-3.6 0.5,-7.1 1.1,-7.9c0.6,-0.8 1.5,-2.4 1.8,-3.7c1.3,-3.9 3.3,-2.4 5.1,3.5c0.9,3.2 2.3,7.3 3.1,9.1c0.8,1.8 1.4,3.9 1.4,4.7c0,0.7 0.6,2.6 1.4,4.2c0.7,1.5 2,4.4 2.9,6.3c2.6,6.1 11.8,24.4 13.8,27.5c1,1.6 2.2,3.7 2.6,4.5c1.3,2.8 11.1,16.7 18.5,26.3c6.2,8.1 21.1,23.5 30.7,31.7c3.5,3 6.9,5.9 7.5,6.5c2.7,2.3 19.4,13.8 21.6,14.8c0.8,0.4 2.9,1.6 4.5,2.7c7.1,4.6 15.7,8.2 18.4,7.5c2.6,-0.7 7.1,-4.2 7.1,-5.6c0,-0.7 13,-23.2 16,-27.9c0.6,-0.8 1.5,-2.4 2,-3.5c0.6,-1.1 1.9,-3.4 3,-5c1.1,-1.7 2.3,-3.7 2.7,-4.5c0.3,-0.8 1.9,-3.1 3.5,-5.1c4.1,-5.3 3.9,-10.3 -0.4,-12.9c-1.8,-1.1 -4.4,-2.3 -5.7,-2.7c-5.8,-1.5 -25.2,-16.2 -36.5,-27.7c-7.9,-8.1 -22.1,-25.6 -23.9,-29.6c-0.4,-0.8 -1.6,-2.9 -2.7,-4.5c-2.9,-4.5 -12,-23.2 -12,-24.8c0,-0.7 -0.7,-2.2 -1.5,-3.3c-0.8,-1 -1.5,-2.6 -1.5,-3.4c0,-0.8 -0.7,-2.8 -1.5,-4.4c-0.8,-1.5 -1.5,-3.2 -1.5,-3.7c0,-0.5 13.2,-0.9 29.9,-0.9c19.1,0 30.2,-0.4 30.6,-1c0.3,-0.6 4.1,-2.7 8.3,-4.7l7.7,-3.8l39,-0.6c21.5,-0.3 40.2,-0.9 41.7,-1.4c1.5,-0.4 4.4,-2.4 6.3,-4.4l3.5,-3.6l80.3,0.2c52.8,0.1 81.1,-0.2 82.9,-0.9c2.2,-0.8 2.7,-1.7 3,-5.1l0.3,-4.2l11.6,-0.3c14.7,-0.3 15.4,-0.9 15.4,-11.9c0,-7.1 -0.2,-7.6 -3,-10c-2.8,-2.3 -3.6,-2.4 -14,-2.1l-11,0.3l0.4,-17.3c0.3,-16.9 0.3,-17.4 -2,-19.8c-4.3,-4.6 -18.9,-2.5 -18.9,2.8c0,0.8 -0.7,2.3 -1.5,3.4c-0.8,1 -1.5,2.8 -1.5,4c0,1.1 -0.7,2.9 -1.5,4c-0.8,1 -1.5,2.8 -1.5,4c0,1.1 -0.7,2.9 -1.5,4c-0.8,1 -1.5,2.7 -1.5,3.6c0,0.9 -0.7,2.9 -1.4,4.5c-0.8,1.5 -1.7,3.6 -2,4.5c-0.5,1.6 -2.3,1.8 -20.3,1.8c-17.7,0 -20,-0.2 -21.4,-1.8c-2.4,-2.7 -18.2,-16.8 -23.7,-21.2l-5,-4l-31,0c-17.4,0 -31.3,-0.4 -31.6,-0.9c-0.3,-0.5 -3,-2.5 -6,-4.5l-5.4,-3.6l-53.8,0c-48.2,0 -53.9,-0.2 -55.5,-1.6c-1.6,-1.4 -4.9,-1.7 -22.5,-1.8c-11.3,0 -21.1,0.2 -21.7,0.6zm322.6,10.9c1,3.8 -0.9,6.9 -4.3,6.9c-2.6,0 -3,-0.4 -3,-2.6c0,-3.8 1.8,-6.4 4.4,-6.4c1.6,0 2.6,0.7 2.9,2.1zm-258.8,1c0.6,0.7 0.9,23.9 0.3,24.5c-0.4,0.3 -12.5,0.6 -27,0.7l-26.3,0.1l-0.5,-11.9c-0.3,-6.6 -0.3,-12.6 -0.1,-13.3c0.3,-1.1 5.3,-1.3 26.8,-0.9c14.5,0.2 26.6,0.6 26.8,0.8zm15.3,-0.3c0.9,0.7 1.2,3.9 1,12.8l-0.3,11.9l-3,0l-3,0l-0.6,-12c-0.3,-6.6 -0.3,-12.3 -0.1,-12.8c0.4,-0.9 4.4,-0.9 6,0.1zm72.9,2.4c2.1,2 2.3,3 2.3,12.1l0,9.9l-12.9,-0.7c-12.3,-0.7 -13,-0.6 -15,1.4c-2.7,2.7 -2.6,4.2 0.6,6.5c2.3,1.7 3.7,1.8 14.9,1.2l12.4,-0.7l0,11.7c0,10.7 -0.2,12 -2.2,14.1l-2.1,2.3l-36.4,0c-30.1,0 -37,0.3 -40,1.5c-1.9,0.8 -4.3,1.5 -5.2,1.5c-1,0 -4.4,1.4 -7.7,3c-7,3.7 -20.1,5.9 -24,4.1c-2.9,-1.3 -3.3,-5.6 -0.6,-7c0.9,-0.5 4.8,-0.7 8.6,-0.4c5.5,0.5 7.6,0.2 10.2,-1.2c6.8,-3.7 2.7,-6.8 -8.5,-6.4c-8.7,0.3 -12.1,-0.5 -12.1,-2.9c0.1,-4.1 0.6,-4.2 29.5,-4.4l28,-0.3l0,-2.5c0,-4.2 -2.9,-4.6 -29.5,-4c-13.5,0.3 -25.1,0.4 -25.8,0.2c-0.7,-0.3 -1.5,-1.5 -1.8,-2.9c-1.4,-5.2 -1.1,-5.3 41.1,-5.4c42.2,-0.1 42.5,-0.1 42.5,-5.5c0,-4 -3.1,-4.8 -17.1,-4l-12.8,0.6l-0.3,-11c-0.2,-6.1 -0.1,-11.5 0,-12c0.2,-0.6 11.9,-1 31,-1c30,0 30.6,0 32.9,2.2zm-150.5,4.4c2.5,5.5 2.3,5.6 -32.2,5.5c-30.9,-0.1 -31.6,-0.1 -35.4,2.1c-2.5,1.5 -4.9,4 -6.5,7.1c-1.4,2.7 -3.5,5.3 -4.5,5.9c-1.3,0.7 -12.2,0.9 -33.5,0.6c-25.5,-0.4 -32.4,-0.2 -35.6,0.9c-2.9,1 -8,1.3 -18.8,1.1l-14.7,-0.3l-2.5,3c-4.9,6 -5.1,6 28,6.1c16.5,0 30.6,0.1 31.3,0.2c0.6,0.1 1.2,0.8 1.2,1.6c0,0.9 -2.3,2.1 -5.7,3.1c-3.2,0.9 -7.6,2.3 -9.8,3.1c-5.8,2 -9,1.7 -12,-1c-3.1,-2.9 -9,-4.1 -12.7,-2.7c-1.4,0.5 -3.7,2.1 -5.2,3.4c-2.4,2.2 -2.7,3.2 -2.4,7.8c0.3,4.6 0.7,5.5 3.9,8.1c4.9,4 10.5,4.1 15.5,0.3c1.9,-1.5 6.7,-3.5 10.7,-4.5c4,-1 8.8,-2.4 10.7,-3.1c15.1,-5.2 20.5,-6.9 22.5,-6.9c0.9,0 3.1,-0.6 4.8,-1.4c3.1,-1.3 8.7,-2.9 15.7,-4.5c3.5,-0.8 6.4,-2.2 11,-5.3c2.3,-1.6 7.5,-1.8 49.2,-2.3c25.6,-0.2 47.3,-0.7 48.1,-1.1c0.8,-0.3 1.8,-0.1 2.2,0.5c0.7,1.3 1.5,35 0.8,36.9c-0.4,1 -21.3,1.2 -108.1,1.2c-94.1,-0.1 -107.9,0 -110.6,1.4c-1.7,0.8 -3.8,1.7 -4.6,2c-0.8,0.4 -3.5,1.7 -5.9,3.1c-2.4,1.4 -5.2,2.5 -6.1,2.5c-2.8,0 -11,-4 -11,-5.3c-0.5,-19.6 -0.6,-34.5 -0.2,-35.5c0.3,-0.9 3.9,-1.2 13.2,-1.2c7.1,0 13.1,-0.4 13.5,-0.9c0.3,-0.6 -0.8,-2.5 -2.4,-4.4c-2.9,-3.3 -9.5,-5.7 -15.7,-5.7c-3.3,0 -3.1,-2.9 0.4,-5.5c2.6,-1.9 4,-2 33.9,-1.7c33.3,0.4 35.3,0.1 35.3,-4.5c0,-4.1 -2.7,-4.4 -29.3,-4.3c-13.9,0.1 -25.8,0.1 -26.4,0.1c-1.9,-0.1 -1.6,-1.8 0.9,-4.4l2.3,-2.2l96,-0.5c52.8,-0.3 96.8,-0.6 97.8,-0.8c1,-0.1 2.2,0.8 2.9,2.4zm223.5,2.3c1.8,0.1 3.7,4.1 2.5,5.3c-0.8,0.8 -42,1.3 -59.9,0.8c-1.5,0 -1.8,-5.7 -0.3,-6.2c0.8,-0.2 51.9,-0.1 57.7,0.1zm89.2,10.3c1.5,0.9 2.6,0.9 4.5,0c2.2,-1 2.7,-0.9 3.6,0.8c0.6,1.1 0.8,3.1 0.4,4.5c-0.6,2.5 -0.9,2.6 -6.8,2.3c-5.9,-0.3 -6.1,-0.4 -6.4,-3.1c-0.2,-1.6 0.2,-3.5 0.9,-4.3c1.4,-1.7 1.4,-1.7 3.8,-0.2zm-312.3,2.2c0.3,0.8 0.2,2.2 -0.3,3.1c-0.9,1.5 -4.4,1.7 -30.9,1.9c-18,0.2 -30.4,-0.1 -31.1,-0.7c-0.7,-0.5 -1.3,-1.8 -1.3,-2.7c0,-1 0.6,-2.1 1.3,-2.3c0.6,-0.3 14.8,-0.6 31.5,-0.6c25.5,-0.1 30.4,0.1 30.8,1.3zm218.6,3.4c0.5,0.5 0.6,1.6 0.2,2.5c-0.5,1.5 -3.2,1.7 -26,1.7c-21.7,0 -25.5,-0.2 -26,-1.5c-1.5,-3.9 -0.5,-4 25.6,-3.8c14,0.1 25.7,0.6 26.2,1.1zm30.2,11.2c1.4,1.4 1.6,2.2 0.7,3.8c-0.9,1.8 -2.2,2.2 -7.9,2.4c-6.5,0.3 -6.7,0.4 -7,3.1c-0.4,3.2 -2.6,4.5 -4.7,2.7c-2,-1.6 -2,-9.9 0,-12.6c1.3,-1.9 2.2,-2.1 9.2,-1.6c5.6,0.3 8.3,0.9 9.7,2.2zm11.6,-0.4c1.4,3.5 1.2,10.8 -0.2,12.2c-1.7,1.7 -5.5,1.5 -6.1,-0.3c-0.6,-1.4 0,-10.6 0.9,-13.3c0.7,-2.2 4.4,-1.3 5.4,1.4zm-36.8,0.2c0.6,0.6 0.8,2.2 0.4,3.6l-0.6,2.6l-28.5,0c-27.8,0 -28.4,0 -29.9,-2.1c-1.7,-2.4 -1.2,-4.6 1.2,-5.1c4.6,-0.9 56.4,0 57.4,1zm97.8,2.6c0,1.9 -0.6,3.5 -1.2,3.7c-0.7,0.2 -13,0.2 -27.3,-0.1c-24,-0.5 -26,-0.6 -26.3,-2.3c-0.9,-4.7 -0.9,-4.7 27.8,-4.7l27,0l0,3.4zm26.4,-2.4c1.6,0.6 2.6,1.7 2.6,2.9c0,2.5 -0.6,2.9 -5.9,3.5c-7,0.8 -10.2,-2.1 -6.5,-5.8c1.8,-1.8 6,-2.1 9.8,-0.6zm-583.5,7.9c1.2,0.8 1.4,4.2 1.2,18.3c-0.1,9.5 -0.4,17.5 -0.7,17.7c-0.6,0.7 -7.5,3.2 -10.4,3.8c-1.4,0.3 -3.4,1.2 -4.5,1.9c-1.1,0.8 -2.9,1.4 -4,1.4c-1.1,0 -2.9,0.7 -3.9,1.5c-1.1,0.8 -2.9,1.5 -4.1,1.5c-1.2,0 -3,0.7 -4.1,1.5c-1,0.8 -2.8,1.5 -4,1.5c-1.1,0 -2.9,0.7 -4,1.5c-1,0.8 -2.8,1.5 -3.9,1.5c-1.1,0 -2.9,0.7 -3.9,1.5c-1.1,0.8 -2.8,1.5 -3.7,1.5c-1,0 -3.2,0.7 -5.1,1.6c-7.5,3.8 -9,4.4 -10.3,4.4c-0.7,0 -2.6,0.6 -4.2,1.4c-5.6,2.8 -10.4,4.6 -12.1,4.6c-1,0 -2.7,0.7 -3.8,1.5c-1,0.8 -2.8,1.5 -4,1.5c-1.1,0 -2.9,0.7 -4,1.5c-1,0.8 -2.7,1.5 -3.6,1.5c-1,0 -3.4,0.7 -5.5,1.6c-9.7,4.1 -14,5.8 -22.5,9c-2.1,0.8 -5.5,2 -7.5,2.8c-6.8,2.5 -12.7,4.8 -15.8,6.1c-1.7,0.7 -4.5,1.6 -6.2,1.9c-1.8,0.4 -3.5,1.2 -3.8,1.7c-0.4,0.5 -1.5,0.9 -2.7,0.9c-1.1,0 -3.2,0.6 -4.6,1.3c-12,6.1 -13.6,6.1 -14,0.1c-0.3,-4.8 1.6,-7.4 5.3,-7.4c1.4,0 3.9,-0.6 5.7,-1.4c4.1,-1.7 9.4,-3.5 13.3,-4.6c1.7,-0.5 7.5,-2.5 13,-4.5c11,-3.9 18.6,-6.3 22.7,-7.2c1.4,-0.3 3.6,-1.5 4.7,-2.7l2.1,-2.3l-2,-1.8c-2.1,-1.9 -1.8,-2 -14.5,2c-2.2,0.7 -6.7,2.1 -10,3c-3.3,1 -7.6,2.3 -9.5,3c-1.9,0.7 -6.2,2 -9.5,3c-3.3,0.9 -7.1,2.2 -8.5,2.7c-8.6,3.4 -11.3,4 -12.1,2.6c-1,-1.5 -1.1,-4.4 -0.3,-7.6c0.5,-1.6 1.4,-2.2 3.3,-2.2c1.4,0 4.6,-0.6 7.1,-1.4c2.5,-0.8 7.2,-2.2 10.5,-3.1c3.3,-1 8,-2.3 10.5,-3c2.5,-0.7 7.2,-2.1 10.5,-3c3.3,-0.9 8.1,-2.3 10.6,-3.1c2.6,-0.7 5.7,-1.4 6.9,-1.4c4.7,0 12.8,-3.3 13.4,-5.4c1.3,-4.9 -3.3,-5.5 -14.4,-2.1c-2.5,0.8 -7.2,2.1 -10.5,2.9c-3.3,0.8 -8,1.9 -10.5,2.6c-2.5,0.6 -6.3,1.5 -8.5,2c-5.9,1.3 -12.6,3 -16,4.2c-5.7,1.9 -10.8,2.9 -12.2,2.4c-1,-0.4 -1.3,-1.9 -1.1,-4.8l0.3,-4.3l5.5,-1.3c3,-0.7 7.8,-1.6 10.5,-2.1c2.8,-0.5 7,-1.3 9.5,-1.9c2.5,-0.6 7.9,-1.8 12,-2.6c4.1,-0.9 11,-2.3 15.3,-3.2c5.8,-1.2 8,-2.1 8.8,-3.7c0.9,-1.6 0.8,-2.3 -0.6,-3.3c-1.8,-1.4 -3.6,-1.2 -14.5,1.1c-3.6,0.8 -11,2.1 -16.5,3c-5.5,0.8 -12.9,2.2 -16.5,3c-6.3,1.4 -10.1,1.8 -12.7,1.6c-0.8,-0.1 -1.3,-1.6 -1.3,-4c0,-6 -0.4,-5.8 24.3,-8.1c6,-0.5 11.2,-1.2 11.7,-1.5c0.4,-0.2 8.6,-1.2 18.1,-2c43.9,-4 51.7,-5.2 52.5,-7.8c1.3,-4.1 -1.2,-4.8 -14.6,-3.8c-19.7,1.5 -35.6,3.1 -47,4.7c-5.8,0.8 -13.3,1.4 -16.6,1.4c-3.4,0 -9.6,0.7 -13.8,1.6c-4.1,0.8 -9,1.4 -10.8,1.2l-3.2,-0.3l0.2,-9.5c0.1,-5.2 0.2,-9.8 0.2,-10.3c0,-0.4 33.5,-0.7 74.5,-0.7c64,0 75.1,-0.2 78.2,-1.5c1.9,-0.8 4.4,-1.5 5.4,-1.5c1,0 3.3,-0.6 5.1,-1.4c6.8,-2.9 13.6,-4 15.7,-2.7zm79.1,6.6c1.6,1.9 0.5,6.1 -1.7,6.7c-2.5,0.7 -4.2,-0.1 -5.3,-2.3c-2.3,-4.3 3.9,-8.2 7,-4.4zm353.6,-0.5c22,0 25.5,0.2 26.1,1.5c0.3,0.9 0.3,1.8 0,2.1c-1,1 -55,0.5 -56,-0.5c-1.4,-1.4 1.1,-4.4 3,-3.6c0.8,0.3 12.9,0.5 26.9,0.5zm123.1,1.5c0.3,0.9 0.3,1.8 0.1,2.1c-0.3,0.2 -12.1,0.5 -26.2,0.5c-18.1,0.1 -26.1,-0.2 -26.9,-1c-2.5,-2.5 2.4,-3.1 27.1,-3.1c21.9,0 25.3,0.2 25.9,1.5zm-743.9,49.1l0.2,49.2l-2.1,0.5c-2.9,0.8 -4.6,-0.1 -5.3,-2.6c-0.3,-1.2 -0.6,-22.9 -0.6,-48.3c0,-49.2 0,-48.8 5,-48.2l2.5,0.3l0.3,49.1zm318.2,-6.2c0,18.6 0.6,18 -18.6,18.4c-17.2,0.4 -20.5,0 -24,-3.3c-2.2,-2 -2.5,-3 -2.1,-6.2c0.8,-5.5 3,-12.6 4.8,-15.3c2.1,-3.1 4.9,-2.1 4.9,1.8c0,9.2 10.8,19.5 16.9,16.2c3,-1.6 2.6,-3.5 -1.5,-6.6c-4.5,-3.4 -7.4,-9.1 -7.4,-14.4l0,-4l13.5,0l13.5,0l0,13.4zm-52.7,-11.4c2.1,0 2.7,0.5 2.7,2.3c0,1.3 -0.4,2.7 -0.9,3.2c-0.5,0.6 -1.9,3.9 -3.2,7.3c-1.2,3.5 -2.8,6.6 -3.6,6.9c-0.7,0.3 -2.5,-0.8 -4.1,-2.3c-1.5,-1.6 -5.8,-5.8 -9.5,-9.3c-3.7,-3.5 -6.7,-6.5 -6.5,-6.6c0.7,-0.6 18.4,-2.2 20.3,-1.9c1.1,0.2 3.2,0.4 4.8,0.4zm74.5,1.6c3.1,2.1 2.8,3.7 -1.5,8.4c-4.3,4.7 -6.3,5 -8,1.3c-3,-6.3 -0.7,-10.4 6.2,-11.2c0.6,0 2.1,0.6 3.3,1.5zm50.7,-1c1.4,0.4 2.5,2.3 3.8,6.7c3.7,12.3 5.7,17.1 16.6,38.5c6.1,12.1 22,33.1 34.1,45.3c15.3,15.3 18.8,18.1 22.4,17.7c2.5,-0.2 3.2,-0.8 3.4,-2.8c0.2,-1.9 -0.7,-3.1 -3.5,-5.1c-6.1,-4.3 -22.1,-19.8 -28.2,-27.3c-6.4,-7.9 -14.6,-19.2 -16.1,-22.1c-0.6,-1.1 -1.9,-3.4 -2.9,-5c-2,-3.1 -11.2,-21.6 -13.5,-27c-1.6,-3.7 -3.5,-9 -4.7,-13.3c-1.3,-4.3 0.3,-6.6 4,-5.7c3.4,0.8 4.1,1.6 5.1,5.6c1.5,5.8 6.6,18.6 10,25c6.3,11.8 7.4,13.8 15.2,25.1c11.7,17 31.5,36.8 44.4,44.4c1.8,1.1 1.8,1.2 0.1,4.5c-0.9,1.9 -2.6,4.7 -3.7,6.4c-1.1,1.6 -2.4,3.9 -3,5c-0.6,1.1 -1.9,3.3 -3,5c-1.1,1.6 -2.3,3.7 -2.6,4.5c-2,4.4 -12.1,20.3 -13.2,20.7c-2.1,0.9 -24,-16.4 -36.7,-28.9c-10.7,-10.5 -27.3,-29.9 -28.4,-33.1c-0.2,-0.7 -1.7,-2.8 -3.2,-4.8c-1.6,-2 -2.9,-3.9 -2.9,-4.2c0,-0.3 -1.5,-2.9 -3.4,-5.7c-5.6,-8.5 -20.6,-39.5 -20.6,-42.6c0,-0.8 -0.6,-2.5 -1.2,-3.7c-0.7,-1.2 -1.8,-4.2 -2.6,-6.7c-3.7,-12.7 -3.6,-14.5 0.1,-16c2.4,-1 31,-1.3 34.2,-0.4zm-146,16.8c4.7,4.8 4.1,10.2 -3.1,26.3c-0.8,1.7 -1.4,3.6 -1.4,4.1c0,0.6 -0.6,2.3 -1.4,3.9c-2.7,5.1 -4.6,10.1 -4.6,11.6c0,0.9 -0.4,1.8 -0.9,2.1c-0.5,0.3 -1.2,1.8 -1.5,3.3c-0.7,3 -1.8,5.6 -6.4,14.9c-3.4,6.8 -3.4,6.7 3.1,10.8c2,1.2 2.7,2.4 2.5,3.9c-0.3,1.8 -0.9,2.2 -4.1,2.1c-2.1,-0.1 -5.2,-0.8 -7,-1.7c-1.8,-0.8 -4.8,-2.2 -6.7,-3c-1.9,-0.8 -5.2,-2.2 -7.3,-3.1c-2.1,-0.9 -4.3,-1.6 -5,-1.6c-0.7,-0.1 -2.2,-0.9 -3.4,-1.9c-2.7,-2.2 -3.1,-7.4 -0.9,-11.8c0.8,-1.5 2.2,-4.6 3.1,-6.8c1,-2.2 2.4,-5.3 3.1,-6.8c0.8,-1.6 1.4,-3.5 1.4,-4.2c0,-0.7 0.6,-2.6 1.4,-4.2c0.8,-1.5 2.2,-4.6 3.1,-6.8c1,-2.2 2.4,-5.3 3.1,-6.8c0.8,-1.6 1.4,-3.5 1.4,-4.2c0,-0.7 0.7,-2.6 1.4,-4.2c0.8,-1.5 1.8,-3.5 2.1,-4.3c1.6,-4.1 6.6,-10 8.4,-10c0.5,0 1.4,-0.6 2.1,-1.4c1.2,-1.6 4,-2.2 10.8,-2.5c3.3,-0.1 4.8,0.4 6.7,2.3zm249,90.8c1.4,0.6 2.5,1.8 2.5,2.6c0,1.1 -8.4,16.1 -14.1,25.2c-0.5,0.8 -1.2,2.2 -1.6,3c-0.4,0.8 -2.7,4.8 -5.1,8.7c-4.5,7.6 -6.6,8.8 -9.6,5.7c-2.1,-2.1 -2,-4.6 0.3,-7.5c2.1,-2.7 15.8,-25.2 17.3,-28.4c0.5,-1.1 1.4,-2.9 2.1,-4c0.7,-1.1 1.8,-3 2.5,-4.3c1.5,-2.5 2.1,-2.7 5.7,-1z" id="svg_2"/>
 </g>
</svg>