<?xml version="1.0"?>
<svg width="575" height="100" xmlns="http://www.w3.org/2000/svg" xmlns:svg="http://www.w3.org/2000/svg" preserveAspectRatio="xMidYMid meet" version="1.0">
 <g class="layer">
  <title>Layer 1</title>
  <g fill="#000000" id="svg_13" transform="matrix(0.0235287 0 0 -0.0188631 37.6385 27.9841)">
   <path d="m13734.67,603.85c-94,-107 -227,-152 -424,-144c-112,4 -128,7 -230,47c-189,73 -236,82 -440,83c-145,1 -202,-3 -295,-21c-573,-107 -1062,-446 -1294,-896c-147,-287 -181,-608 -105,-1006c76,-394 277,-742 548,-945c94,-71 255,-158 366,-198c228,-81 602,-120 797,-83c114,22 177,50 323,146c197,129 270,153 465,153c195,0 316,-38 405,-127c41,-42 85,-132 85,-176c0,-13 7,-20 20,-20c20,0 20,8 22,728l3,727l238,3l237,2l0,50l0,50l-1025,0l-1025,0l0,-50l0,-50l258,-2l257,-3l3,-470c2,-442 1,-475 -18,-549c-48,-191 -164,-294 -341,-304c-101,-6 -152,12 -209,74c-152,165 -196,496 -187,1411c5,514 10,603 52,833c52,290 150,490 279,569c191,118 507,3 801,-293c174,-175 279,-338 345,-534c31,-93 60,-239 60,-303l0,-39l55,0l55,0l0,695c0,789 6,742 -81,642z" id="svg_14"/>
   <path d="m1250.67,540.85c338,-228 544,-518 626,-879c27,-124 31,-366 6,-481c-21,-96 -69,-209 -128,-300c-49,-75 -180,-215 -232,-249c-26,-17 -28,-17 -48,1c-17,16 -119,207 -119,224c0,3 27,3 59,2c89,-5 101,7 46,46c-56,40 -128,137 -150,203c-24,70 -16,147 23,235c43,97 54,152 54,274c-1,117 -17,205 -60,328l-29,82l29,18c35,21 72,73 93,131c25,71 23,72 -62,38c-59,-23 -95,-30 -145,-31c-62,0 -76,4 -181,58c-63,31 -139,64 -168,71c-116,31 -217,9 -257,-57c-18,-29 -31,-37 -74,-47c-118,-26 -178,-76 -178,-147c0,-45 43,-123 97,-176l48,-48l24,44c35,67 93,82 143,38c16,-14 14,-16 -30,-37c-26,-12 -69,-46 -95,-74c-73,-77 -89,-73 -178,37c-20,24 -39,-6 -39,-60c0,-41 5,-54 28,-78c16,-15 47,-34 69,-40c66,-20 107,-6 179,61c35,32 66,59 69,59c3,0 -1,-13 -10,-30c-21,-41 -19,-103 3,-123c21,-19 107,-23 117,-6c4,6 -2,21 -14,33c-29,31 -28,76 1,76c33,0 102,-78 118,-134c40,-143 -54,-335 -185,-379c-59,-21 -166,-22 -228,-3c-57,17 -60,7 -19,-50c34,-47 91,-98 133,-119l30,-16l-36,-41c-50,-55 -90,-144 -116,-256l-22,-94l-64,64c-160,156 -298,387 -349,583c-36,136 -38,308 -6,440c28,114 111,283 193,395c77,106 255,283 376,375c51,38 90,71 88,73c-8,8 -152,-21 -249,-50c-392,-116 -674,-373 -790,-720c-45,-133 -57,-206 -63,-388c-6,-194 9,-354 51,-541c13,-57 27,-117 31,-134c6,-27 0,-23 -63,41c-81,83 -148,207 -184,339c-27,102 -30,366 -6,485c9,41 15,76 13,78c-7,8 -90,-126 -126,-202c-83,-177 -120,-381 -100,-548c40,-342 238,-643 603,-918c42,-32 74,-61 71,-64c-4,-3 -39,-6 -79,-6c-142,0 -293,68 -468,211l-89,72l6,-33c12,-57 74,-199 121,-273c118,-189 292,-316 495,-361c126,-29 318,-21 486,19l30,8l-40,-42c-93,-97 -206,-143 -350,-142c-49,0 -115,7 -145,15c-30,8 -57,12 -60,10c-2,-3 37,-45 87,-93c179,-175 375,-235 568,-174c67,21 140,58 197,100l48,34l17,-43c65,-162 194,-377 272,-452c22,-22 42,-38 44,-35c23,27 92,139 119,194c33,64 106,274 123,353c4,20 12,31 18,29c182,-78 260,-97 392,-97c117,0 221,23 319,69c60,29 166,100 166,112c0,3 -13,4 -29,1c-39,-5 -143,23 -189,52c-37,23 -132,121 -132,136c0,4 51,10 113,13c328,17 571,177 702,461c39,84 80,227 90,314l7,57l-48,-70c-60,-88 -172,-201 -247,-249c-76,-49 -174,-85 -250,-93l-62,-6l80,64c109,86 269,248 336,339c151,204 217,374 226,583c8,178 -23,328 -99,482c-63,127 -239,359 -223,295c103,-421 99,-665 -17,-900c-31,-64 -59,-103 -113,-157c-40,-40 -77,-73 -83,-73c-6,0 0,31 14,73c32,93 68,237 90,357c25,135 25,415 1,528c-35,157 -87,284 -170,407c-88,131 -289,300 -460,387c-123,62 -328,129 -462,152l-40,7l70,-47zm-425,-385c22,-28 40,-57 40,-64c0,-16 -56,-65 -75,-65c-21,0 -26,29 -10,59c13,26 12,32 -5,67c-24,46 -25,54 -5,54c8,0 33,-23 55,-51zm240,-1609c47,-24 73,-25 90,-5c25,30 28,23 46,-77c6,-34 4,-38 -15,-38c-11,0 -21,5 -21,10c0,19 -89,68 -156,86c-53,14 -71,15 -104,5c-79,-23 -115,-116 -69,-175c30,-38 76,-58 224,-100c199,-56 255,-99 255,-197c0,-63 -42,-143 -92,-176l-39,-26l30,-13c51,-21 129,-103 181,-188c73,-122 121,-158 174,-131c14,8 28,10 31,6c7,-12 -25,-38 -68,-56c-77,-32 -159,21 -238,156c-81,140 -174,203 -316,214l-83,6l0,-150c0,-160 7,-195 39,-206c39,-12 23,-27 -21,-21c-58,8 -66,8 -120,0c-54,-8 -62,3 -19,28c38,21 43,48 39,213l-3,130l-40,-3c-22,-2 -56,-11 -76,-21l-37,-17l0,78l0,78l26,-28c29,-31 94,-57 117,-48c12,4 15,37 15,185l0,179l-35,22c-66,41 -83,117 -44,197c11,23 35,53 52,65c70,50 197,59 277,18z" id="svg_15"/>
   <path d="m895.67,-1952.15l0,-171l63,0c67,0 155,21 194,47c28,19 49,55 58,104c5,30 2,41 -21,68c-31,38 -77,60 -190,91c-43,12 -84,24 -91,27c-10,4 -13,-30 -13,-166z" id="svg_16"/>
   <path d="m21395.67,477.85c-70,-37 -100,-140 -64,-217c61,-128 248,-115 299,21c28,72 0,154 -67,195c-43,26 -121,26 -168,1zm140,-26c46,-24 70,-62 70,-112c0,-80 -51,-133 -127,-133c-50,0 -82,18 -110,59c-73,109 50,246 167,186z" id="svg_17"/>
   <path d="m21425.67,342.85c0,-51 4,-86 10,-86c6,0 10,16 10,35c0,19 4,35 9,35c5,0 21,-16 35,-35c15,-19 34,-35 42,-35c12,0 9,8 -10,31c-31,37 -32,41 -6,57c41,25 15,67 -47,77l-43,7l0,-86zm72,54c5,0 8,-10 6,-22c-2,-17 -11,-24 -30,-26c-24,-3 -28,0 -28,21c0,29 9,39 28,32c7,-3 18,-5 24,-5z" id="svg_18"/>
   <path d="m7155.67,431.85l0,-55l365,0l364,0l3,-1052l3,-1053l28,-100c88,-324 299,-536 653,-654c229,-76 457,-100 814,-84c328,15 511,53 685,141c148,74 279,201 344,333c81,164 75,59 78,1331l4,1138l302,2l302,3l0,50l0,50l-632,3l-633,2l0,-55l0,-55l260,0l261,0l-3,-1122c-4,-1251 1,-1158 -73,-1317c-51,-107 -160,-214 -275,-269c-118,-56 -217,-77 -370,-77c-102,0 -138,4 -197,23c-148,46 -255,151 -305,300l-23,67l-3,1197l-2,1198l287,2l288,3l0,50l0,50l-1262,3l-1263,2l0,-55z" id="svg_19"/>
   <path d="m14075.67,431.85l0,-55l300,0l300,0l0,-1400l0,-1400l-300,0l-300,0l0,-55l0,-55l1690,0l1690,0l0,705l0,705l-48,0l-49,0l-7,-121c-13,-224 -57,-422 -131,-585c-132,-288 -388,-502 -690,-575c-69,-16 -118,-19 -357,-19l-278,0l0,736l0,737l61,-7c173,-18 301,-76 416,-191c64,-65 89,-100 121,-166c50,-103 81,-217 89,-326l6,-83l63,0l64,0l0,795l0,795l-64,0l-63,0l-6,-77c-9,-107 -30,-183 -78,-282c-94,-191 -303,-327 -563,-366l-46,-7l0,621l0,621l153,0c243,0 428,-41 600,-133c288,-153 493,-458 557,-827c21,-120 15,-110 70,-110l50,0l0,590l0,590l-1625,0l-1625,0l0,-55z" id="svg_20"/>
   <path d="m3465.67,426.85l0,-50l350,0l350,0l0,-1400l0,-1400l-350,0l-350,0l0,-55l0,-55l1220,0l1220,0l0,55l0,55l-260,0l-260,0l0,740l0,740l214,0c127,0 226,-4 243,-11c40,-15 91,-67 119,-121c47,-93 55,-153 64,-488c6,-277 10,-324 29,-387c107,-365 368,-566 782,-603c305,-27 510,8 684,115c185,115 287,300 310,566l7,76l-47,6c-88,13 -85,15 -85,-58c0,-147 -53,-305 -130,-389c-75,-82 -192,-120 -248,-80c-32,22 -60,82 -72,155c-5,35 -10,189 -10,341c0,267 -1,280 -25,356c-106,336 -481,546 -1012,569c-108,5 -143,9 -143,19c0,14 10,16 150,34c324,43 642,152 812,279c220,164 270,413 123,609c-148,196 -468,325 -1020,409c-98,15 -254,17 -1387,20l-1278,4l0,-51zm2331,-83c100,-49 167,-140 210,-289c17,-58 22,-109 26,-253c9,-342 -52,-561 -173,-621c-35,-17 -62,-19 -254,-19l-215,0l-3,595c-1,327 0,601 3,608c4,11 41,13 178,10c164,-3 174,-4 228,-31z" id="svg_21"/>
   <path d="m17615.67,426.85l0,-50l350,0l350,0l0,-1400l0,-1400l-350,0l-350,0l0,-55l0,-55l1220,0l1220,0l0,55l0,55l-260,0l-260,0l0,740l0,740l215,0c160,0 224,-4 248,-14c68,-28 131,-130 158,-256c6,-25 14,-184 18,-355c6,-239 12,-323 25,-369c104,-369 368,-577 781,-616c373,-35 625,30 800,205c114,113 174,250 195,445c6,56 10,104 8,105c-2,2 -31,7 -64,10l-61,7l-6,-98c-6,-113 -40,-233 -85,-304c-56,-89 -149,-149 -231,-150c-37,0 -49,5 -76,34c-52,56 -57,89 -64,456c-8,367 -6,355 -77,490c-141,270 -493,437 -961,457c-106,4 -143,9 -143,19c0,14 23,19 115,29c190,20 469,92 634,163c112,49 247,138 302,200c59,67 108,173 115,253c21,219 -137,403 -457,530c-135,54 -367,112 -582,146l-172,27l-1277,3l-1278,4l0,-51zm2332,-83c99,-49 169,-147 211,-295c18,-67 21,-104 21,-292c1,-250 -13,-341 -70,-457c-62,-129 -106,-145 -390,-141l-179,3l-3,595c-1,327 0,601 3,608c4,11 41,13 178,10c165,-3 174,-4 229,-31z" id="svg_22"/>
   <path d="m1385.67,-2885.15c-65,-34 -85,-67 -85,-143c0,-49 5,-70 21,-92c52,-70 150,-88 222,-41c101,68 94,226 -13,278c-53,26 -90,25 -145,-2zm130,-23c76,-39 80,-170 8,-217c-59,-38 -129,-29 -173,23c-30,37 -35,111 -9,148c39,56 116,76 174,46z" id="svg_23"/>
   <path d="m1400.67,-2945.15c-11,-28 -1,-151 13,-156c8,-2 12,8 12,34l0,38l40,-39c45,-44 68,-40 26,4c-28,29 -28,29 -7,40c24,13 28,53 7,70c-24,20 -85,26 -91,9zm70,-22c25,-18 13,-46 -20,-46c-21,0 -25,5 -25,30c0,33 15,38 45,16z" id="svg_24"/>
  </g>
 </g>
</svg>